<svg xmlns="http://www.w3.org/2000/svg" xmlns:xlink="http://www.w3.org/1999/xlink" width="259" height="70.755" viewBox="0 0 259 70.755">
  <defs>
    <filter id="navbar-dp-shape-1" x="0" y="0" width="259" height="70.755" filterUnits="userSpaceOnUse">
      <feOffset dx="2" dy="1" input="SourceAlpha"/>
      <feGaussianBlur stdDeviation="1.5" result="blur"/>
      <feFlood flood-opacity="0.161"/>
      <feComposite operator="in" in2="blur"/>
      <feComposite in="SourceGraphic"/>
    </filter>
  </defs>
  <g transform="matrix(1, 0, 0, 1, 0, 0)" filter="url(#navbar-dp-shape-1)">
    <path id="navbar-dp-shape-1-2" data-name="navbar-dp-shape-1" d="M15.951,2.459S56.193.587,81.207-.225c41.044-1.331,80.928-1.923,115.211-1.923,54.245,0,46.428.855,46.428.855,8.171,0,6.141,9.513,6.141,16.62v12.44a125.14,125.14,0,0,1-1.262,15.442c0,7.107-6.624,12.869-14.794,12.869,0,0-70.948,3.528-125.194,3.528s-91.787-3.528-91.787-3.528C7.78,56.079-.594,50.317-.594,43.21c0,0-.438-8.06,0-15.031A92.737,92.737,0,0,1,1.157,15.328C1.157,8.22,7.78,2.459,15.951,2.459Z" transform="translate(3.29 5.65)" fill="#ccdaee"/>
  </g>
</svg>
